<svg width="40" height="40" viewBox="0 0 40 40" fill="none" xmlns="http://www.w3.org/2000/svg">
<path d="M3.33325 13.9627C3.33325 13.3788 3.33325 13.0869 3.35761 12.841C3.59259 10.4694 5.4687 8.59332 7.84027 8.35835C8.08616 8.33398 8.39385 8.33398 9.00922 8.33398C9.24634 8.33398 9.3649 8.33398 9.46556 8.32789C10.7509 8.25004 11.8765 7.43878 12.3568 6.24398C12.3944 6.15041 12.4296 6.04494 12.4999 5.83398C12.5702 5.62303 12.6054 5.51755 12.643 5.42399C13.1233 4.22919 14.2489 3.41793 15.5343 3.34008C15.6349 3.33398 15.7461 3.33398 15.9685 3.33398H24.0314C24.2537 3.33398 24.3649 3.33398 24.4656 3.34008C25.7509 3.41793 26.8765 4.22919 27.3568 5.42399C27.3944 5.51755 27.4296 5.62303 27.4999 5.83398C27.5702 6.04494 27.6054 6.15041 27.643 6.24398C28.1233 7.43878 29.2489 8.25004 30.5343 8.32789C30.6349 8.33398 30.7535 8.33398 30.9906 8.33398C31.606 8.33398 31.9137 8.33398 32.1596 8.35835C34.5311 8.59332 36.4073 10.4694 36.6422 12.841C36.6666 13.0869 36.6666 13.3788 36.6666 13.9627V27.0007C36.6666 29.8009 36.6666 31.201 36.1216 32.2706C35.6423 33.2114 34.8773 33.9763 33.9365 34.4557C32.867 35.0007 31.4668 35.0007 28.6666 35.0007H11.3333C8.53299 35.0007 7.13286 35.0007 6.0633 34.4557C5.12249 33.9763 4.35759 33.2114 3.87822 32.2706C3.33325 31.201 3.33325 29.8009 3.33325 27.0007V13.9627Z" stroke="white" stroke-width="2" stroke-linecap="round" stroke-linejoin="round"/>
<path d="M19.9999 27.5007C23.6818 27.5007 26.6666 24.5159 26.6666 20.834C26.6666 17.1521 23.6818 14.1673 19.9999 14.1673C16.318 14.1673 13.3333 17.1521 13.3333 20.834C13.3333 24.5159 16.318 27.5007 19.9999 27.5007Z" stroke="white" stroke-width="2" stroke-linecap="round" stroke-linejoin="round"/>
</svg>
