<svg width="10" height="10" viewBox="0 0 10 10" fill="none" xmlns="http://www.w3.org/2000/svg">
<path d="M0.528514 0.52827C0.788864 0.26792 1.21097 0.26792 1.47132 0.52827L4.99992 4.05687L8.52851 0.52827C8.78886 0.26792 9.21097 0.26792 9.47132 0.52827C9.73167 0.788619 9.73167 1.21073 9.47132 1.47108L5.94273 4.99967L9.47132 8.52827C9.73167 8.78862 9.73167 9.21073 9.47132 9.47108C9.21097 9.73143 8.78886 9.73143 8.52851 9.47108L4.99992 5.94248L1.47132 9.47108C1.21097 9.73143 0.788864 9.73143 0.528514 9.47108C0.268165 9.21073 0.268165 8.78862 0.528514 8.52827L4.05711 4.99967L0.528514 1.47108C0.268165 1.21073 0.268165 0.788619 0.528514 0.52827Z" fill="#757A89"/>
</svg>
