<svg width="18" height="22" viewBox="0 0 18 22" fill="none" xmlns="http://www.w3.org/2000/svg">
<path d="M5.04755 21.104L5.42069 18.685L4.58952 18.6654H0.620605L3.3788 0.816238C3.38736 0.762355 3.41518 0.712113 3.45585 0.676433C3.49652 0.640754 3.5486 0.621094 3.60282 0.621094H10.295C12.5166 0.621094 14.0498 1.09294 14.8503 2.02424C15.2256 2.46113 15.4646 2.91768 15.5802 3.4201C15.7015 3.94728 15.7036 4.57714 15.5852 5.34533L15.5766 5.4014V5.89363L15.9519 6.11062C16.268 6.28173 16.5191 6.47761 16.7117 6.70188C17.0328 7.07542 17.2404 7.55017 17.3281 8.11303C17.4187 8.69191 17.3888 9.38074 17.2404 10.1606C17.0692 11.0577 16.7923 11.839 16.4185 12.4783C16.0746 13.0674 15.6365 13.556 15.1164 13.9346C14.6199 14.2943 14.0299 14.5674 13.3628 14.7421C12.7164 14.914 11.9794 15.0006 11.1711 15.0006H10.6503C10.2778 15.0006 9.91612 15.1375 9.63217 15.3829C9.3475 15.6334 9.15915 15.9756 9.10136 16.3499L9.06212 16.5676L8.4029 20.8309L8.37293 20.9875C8.36509 21.037 8.35153 21.0617 8.33155 21.0785C8.31372 21.0938 8.28803 21.104 8.26306 21.104H5.04755Z" fill="#253B80"/>
<path d="M16.2195 5.58398C16.1997 5.71231 16.1772 5.84351 16.1518 5.97829C15.2806 10.5315 12.3 12.1044 8.49314 12.1044H6.55487C6.08932 12.1044 5.69702 12.4486 5.62447 12.916L4.6321 19.3225L4.35107 21.1384C4.30389 21.4453 4.53631 21.722 4.84057 21.722H8.27832C8.68542 21.722 9.03124 21.4209 9.09533 21.0122L9.12914 20.8344L9.7764 16.6533L9.81795 16.4239C9.88134 16.0138 10.2279 15.7127 10.635 15.7127H11.1491C14.4798 15.7127 17.0872 14.3362 17.8492 10.353C18.1676 8.68899 18.0028 7.29959 17.1604 6.32242C16.9055 6.02776 16.5892 5.78329 16.2195 5.58398Z" fill="#179BD7"/>
<path d="M15.2305 5.28509C15.098 5.24542 14.9612 5.20936 14.8209 5.1769C14.6799 5.14516 14.5354 5.11703 14.3867 5.09251C13.8662 5.00596 13.296 4.96484 12.685 4.96484H7.52801C7.40105 4.96484 7.28041 4.99442 7.17238 5.04779C6.9346 5.16536 6.75783 5.39689 6.71504 5.68036L5.61799 12.8254L5.58643 13.0339C5.65867 12.5636 6.04938 12.2174 6.51303 12.2174H8.4434C12.2347 12.2174 15.2032 10.6341 16.0709 6.05398C16.0968 5.91838 16.1186 5.78639 16.1382 5.65728C15.9187 5.53754 15.6809 5.43512 15.4248 5.34785C15.3617 5.32621 15.2965 5.30529 15.2305 5.28509Z" fill="#222D65"/>
<path d="M6.94952 5.52144C6.99361 5.23959 7.17577 5.00938 7.42082 4.8932C7.53286 4.84013 7.65647 4.81073 7.7873 4.81073H13.1017C13.7313 4.81073 14.319 4.85161 14.8554 4.93767C15.0086 4.96205 15.1575 4.99002 15.3028 5.02157C15.4474 5.05385 15.5884 5.0897 15.725 5.12915C15.7929 5.14923 15.8601 5.17003 15.9259 5.19082C16.1898 5.2776 16.4348 5.38016 16.6611 5.49849C16.9271 3.81531 16.6589 2.66928 15.7416 1.63155C14.7303 0.489105 12.9051 0 10.5696 0H3.7892C3.31211 0 2.90514 0.344238 2.83141 0.812546L0.00722047 18.5731C-0.0484393 18.9245 0.2248 19.2415 0.58189 19.2415H4.76794L5.81897 12.6257L6.94952 5.52144Z" fill="#253B80"/>
</svg>
