<svg width="31" height="20" viewBox="0 0 31 20" fill="none" xmlns="http://www.w3.org/2000/svg">
<path d="M30.6665 0H19.7335C18.0094 0 16.3359 -6.19444e-07 14.8351 0.797974C13.3347 1.59714 12.0109 3.19555 10.991 6.3915C10.77 7.07948 10.6528 7.67119 10.6381 8.18442C10.6228 8.7013 10.7079 9.13889 10.8937 9.51999C11.1231 9.98377 11.495 10.4219 11.96 10.7907C12.4253 11.1584 12.9828 11.4593 13.5832 11.651C13.6067 11.6574 13.922 11.7522 14.304 11.8658C14.6741 11.978 15.0437 12.092 15.4127 12.2079C15.5774 12.2609 15.7597 12.3298 15.9244 12.4332C16.089 12.5356 16.2361 12.6731 16.3294 12.8648C16.3905 12.9936 16.4237 13.1347 16.4268 13.2782C16.4307 13.427 16.4069 13.5876 16.3506 13.7562C16.211 14.1914 15.9988 14.4697 15.5949 14.642C15.192 14.8119 14.5972 14.8676 13.6963 14.8753H2.44545L0.666504 20H12.7098C13.8423 20 15.9143 20 17.905 19.1127C19.8959 18.2253 21.8054 16.4519 22.6135 12.9035C22.918 11.5693 22.8243 10.4838 22.3254 9.6303C21.8266 8.77613 20.9221 8.15855 19.6074 7.76214C19.6074 7.76214 19.313 7.67246 18.9666 7.56771C18.6208 7.46406 18.2228 7.3447 18.0184 7.28288C17.6817 7.18177 17.4233 6.97702 17.2703 6.71672C17.1177 6.45744 17.0716 6.14151 17.1589 5.81875C17.2486 5.4848 17.467 5.21664 17.7825 5.0326C18.0995 4.84896 18.5158 4.74777 19.0012 4.74777H26.0013C26.05 4.67214 26.0947 4.59214 26.1446 4.51691C27.4236 2.61955 28.9713 1.08431 30.6665 0Z" fill="#EE7F00"/>
</svg>
