<svg width="15" height="20" viewBox="0 0 15 20" fill="none" xmlns="http://www.w3.org/2000/svg">
<path fill-rule="evenodd" clip-rule="evenodd" d="M5.87225 5.95604C5.87225 5.0989 6.57284 4.76923 7.73318 4.76923C9.39707 4.76923 11.4988 5.27472 13.1627 6.17582V1.01099C11.3456 0.285714 9.55033 0 7.73318 0C3.28885 0 0.333252 2.32967 0.333252 6.21978C0.333252 12.2857 8.6527 11.3187 8.6527 13.9341C8.6527 14.9451 7.77697 15.2747 6.55095 15.2747C4.7338 15.2747 2.41311 14.5275 0.574078 13.5165V18.7473C2.61015 19.6264 4.66812 20 6.55095 20C11.1047 20 14.2355 17.7363 14.2355 13.8022C14.2136 7.25274 5.87225 8.41758 5.87225 5.95604Z" fill="#635BFF"/>
</svg>
